# xmcd CD database file
#
# Track frame offsets:
#	150
#	23717
#	47002
#	67082
#	88033
#	112779
#	131603
#	152268
#	168003
#	191425
#	210245
#	227717
#	245379
#	269647
#	294834
#	316377
#	337862
#
# Disc length: 4762 seconds
#
# Revision: 0
# Processed by: cddbd v1.4PL0 Copyright (c) Steve Scherf et al.
# Submitted via: Feurio! 1.65.3ß - http://www.feurio.com
#
DISCID=d8129811
DTITLE=BB Chung King and The Buddaheads - From MP3.COM II
DYEAR=1900
DGENRE=Blues Rock
TTITLE0=57 Chevy New Version
TTITLE1=911
TTITLE2=Cross To Bare
TTITLE3=Hear It From You
TTITLE4=House Of Shame
TTITLE5=Hurricane
TTITLE6=Justeen
TTITLE7=Little Girl
TTITLE8=Long Way Down Buddaheads
TTITLE9=Mean Streak
TTITLE10=Nothi'n To Lose
TTITLE11=Real
TTITLE12=Rise Above It
TTITLE13=Run
TTITLE14=Satisfied
TTITLE15=Softly I Fall
TTITLE16=Still The Rain
EXTD=
EXTT0=
EXTT1=
EXTT2=
EXTT3=
EXTT4=
EXTT5=
EXTT6=
EXTT7=
EXTT8=
EXTT9=
EXTT10=
EXTT11=
EXTT12=
EXTT13=
EXTT14=
EXTT15=
EXTT16=
PLAYORDER=
